<svg width="17" height="16" viewBox="0 0 17 16" fill="none" xmlns="http://www.w3.org/2000/svg">
<g clip-path="url(#clip0)">
<path d="M16.0733 4.70404C16.0358 3.8539 15.8983 3.26944 15.7012 2.76299C15.4979 2.22541 15.1852 1.74412 14.7755 1.34401C14.3752 0.937683 13.8905 0.621948 13.3588 0.421957C12.8492 0.22502 12.2675 0.0875415 11.4169 0.0500586C10.56 0.00940124 10.2879 0 8.11449 0C5.94106 0 5.66901 0.00940124 4.81525 0.0468842C3.96467 0.0843671 3.3799 0.221967 2.87331 0.418783C2.33533 0.621948 1.85379 0.934509 1.45348 1.34401C1.04694 1.74412 0.731158 2.22858 0.530941 2.75994C0.333901 3.26944 0.196352 3.85073 0.158849 4.70087C0.118171 5.55736 0.108765 5.82926 0.108765 8.00156C0.108765 10.1739 0.118171 10.4458 0.155673 11.2991C0.193176 12.1492 0.330847 12.7337 0.527888 13.2401C0.731158 13.7777 1.04694 14.259 1.45348 14.6591C1.85379 15.0654 2.33851 15.3812 2.87014 15.5812C3.3799 15.7781 3.96149 15.9156 4.8122 15.9531C5.66584 15.9907 5.93801 16 8.11143 16C10.2849 16 10.5569 15.9907 11.4107 15.9531C12.2613 15.9156 12.846 15.7781 13.3526 15.5812C14.4285 15.1654 15.279 14.3153 15.695 13.2401C15.8919 12.7306 16.0296 12.1492 16.0671 11.2991C16.1046 10.4458 16.114 10.1739 16.114 8.00156C16.114 5.82926 16.1108 5.55736 16.0733 4.70404ZM14.6317 11.2366C14.5973 12.018 14.466 12.4399 14.3565 12.7212C14.0875 13.4183 13.534 13.9715 12.8366 14.2403C12.5552 14.3497 12.1299 14.481 11.3512 14.5153C10.5068 14.5529 10.2536 14.5622 8.11766 14.5622C5.98174 14.5622 5.72533 14.5529 4.88403 14.5153C4.10222 14.481 3.68004 14.3497 3.39859 14.2403C3.05154 14.1121 2.73564 13.909 2.47923 13.6433C2.21342 13.3838 2.01015 13.0713 1.88188 12.7244C1.77243 12.4431 1.64111 12.018 1.60678 11.2397C1.56916 10.3958 1.55988 10.1426 1.55988 8.00779C1.55988 5.87297 1.56916 5.6167 1.60678 4.77596C1.64111 3.99455 1.77243 3.5726 1.88188 3.29129C2.01015 2.9443 2.21342 2.62869 2.48241 2.37229C2.74187 2.10661 3.0546 1.90345 3.40177 1.77537C3.68322 1.66597 4.10857 1.53472 4.88721 1.50029C5.73156 1.46281 5.98491 1.45341 8.12072 1.45341C10.2598 1.45341 10.5131 1.46281 11.3544 1.50029C12.1362 1.53472 12.5583 1.66597 12.8398 1.77537C13.1868 1.90345 13.5027 2.10661 13.7591 2.37229C14.025 2.63174 14.2282 2.9443 14.3565 3.29129C14.466 3.5726 14.5973 3.99761 14.6317 4.77596C14.6692 5.61987 14.6786 5.87297 14.6786 8.00779C14.6786 10.1426 14.6692 10.3927 14.6317 11.2366Z" fill="white"/>
<path d="M8.11451 3.8916C5.84421 3.8916 4.0022 5.73254 4.0022 8.00178C4.0022 10.271 5.84421 12.112 8.11451 12.112C10.3849 12.112 12.2268 10.271 12.2268 8.00178C12.2268 5.73254 10.3849 3.8916 8.11451 3.8916ZM8.11451 10.6679C6.64166 10.6679 5.44696 9.47399 5.44696 8.00178C5.44696 6.52957 6.64166 5.33561 8.11451 5.33561C9.58749 5.33561 10.7821 6.52957 10.7821 8.00178C10.7821 9.47399 9.58749 10.6679 8.11451 10.6679V10.6679Z" fill="white"/>
<path d="M13.3486 3.72858C13.3486 4.25847 12.9189 4.68812 12.3889 4.68812C11.859 4.68812 11.4294 4.25847 11.4294 3.72858C11.4294 3.19857 11.859 2.76904 12.3889 2.76904C12.9189 2.76904 13.3486 3.19857 13.3486 3.72858V3.72858Z" fill="white"/>
</g>
<defs>
<clipPath id="clip0">
<rect width="16.0083" height="16" fill="white" transform="translate(0.080658)"/>
</clipPath>
</defs>
</svg>
