<svg width="15" height="14" viewBox="0 0 15 14" fill="none" xmlns="http://www.w3.org/2000/svg">
<path d="M12.6674 0H1.4616C0.691203 0 0.0608749 0.63 0.0608749 1.4V12.6C0.0608749 13.37 0.691203 14 1.4616 14H12.6674C13.4378 14 14.0682 13.37 14.0682 12.6V1.4C14.0682 0.63 13.4378 0 12.6674 0ZM4.26306 11.9H2.16197V5.6H4.26306V11.9ZM3.21251 4.41C2.51215 4.41 1.95186 3.85 1.95186 3.15C1.95186 2.45 2.51215 1.89 3.21251 1.89C3.91288 1.89 4.47317 2.45 4.47317 3.15C4.47317 3.85 3.91288 4.41 3.21251 4.41ZM11.9671 11.9H9.86597V8.19C9.86597 7.63003 9.37572 7.14 8.81543 7.14C8.25514 7.14 7.76488 7.63003 7.76488 8.19V11.9H5.66379V5.6H7.76488V6.44C8.11506 5.88 8.88546 5.46 9.51579 5.46C10.8465 5.46 11.9671 6.58 11.9671 7.91V11.9Z" fill="white"/>
</svg>
