<svg width="21" height="18" viewBox="0 0 21 18" fill="none" xmlns="http://www.w3.org/2000/svg">
<path d="M20.0484 2.79875C19.3042 3.125 18.5113 3.34125 17.6847 3.44625C18.5351 2.93875 19.1842 2.14125 19.4893 1.18C18.6964 1.6525 17.821 1.98625 16.888 2.1725C16.1351 1.37125 15.062 0.875 13.8914 0.875C11.6203 0.875 9.7918 2.7175 9.7918 4.97625C9.7918 5.30125 9.81932 5.61375 9.88685 5.91125C6.47633 5.745 3.45851 4.11125 1.4312 1.6225C1.07727 2.23625 0.869662 2.93875 0.869662 3.695C0.869662 5.115 1.60129 6.37375 2.69186 7.1025C2.03277 7.09 1.38618 6.89875 0.838395 6.5975C0.838395 6.61 0.838395 6.62625 0.838395 6.6425C0.838395 8.635 2.26038 10.29 4.1251 10.6712C3.79118 10.7625 3.42724 10.8062 3.04955 10.8062C2.78691 10.8062 2.52177 10.7912 2.27289 10.7362C2.80442 12.36 4.3127 13.5537 6.10614 13.5925C4.71041 14.6837 2.93824 15.3412 1.01974 15.3412C0.683315 15.3412 0.360647 15.3262 0.0379791 15.285C1.85517 16.4562 4.00879 17.125 6.33125 17.125C13.8802 17.125 18.0073 10.875 18.0073 5.4575C18.0073 5.27625 18.0011 5.10125 17.9923 4.9275C18.8065 4.35 19.4906 3.62875 20.0484 2.79875Z" fill="white"/>
</svg>
